<svg width="34" height="34" viewBox="0 0 1000 1000" xmlns="http://www.w3.org/2000/svg" t="1613792732499" class="icon" version="1.1" p-id="12477">
  <defs>
   <style type="text/css"/>
  </defs>
  <g>
   <title>background</title>
   <rect x="-1" y="-1" width="1026" height="1026" id="canvas_background" fill="none"/>
  </g>
  <g>
   <title>Layer 1</title>
   <path d="m512,853.454a10,10 0 0 0 -10,10l-0.002,124.948a10,10 0 1 0 20,0l0.002,-124.948a10,10 0 0 0 -10,-10zm47.942,0a10,10 0 0 0 -10,10l0,81.592c0,5.524 4.476,10 10,10s10,-4.476 10,-10l0,-81.592a10,10 0 0 0 -10,-10zm47.94,-40.04a10,10 0 0 0 -10,10l0,85.508c0,5.524 4.476,10 10,10s10,-4.476 10,-10l0,-85.508a10,10 0 0 0 -10,-10zm-191.766,0a10,10 0 0 0 -10,10l0,85.508a10,10 0 1 0 20,0l0,-85.508a10,10 0 0 0 -10,-10zm47.938,40.04a10,10 0 0 0 -10,10l0.004,81.59a10,10 0 1 0 20,0l-0.004,-81.59a10,10 0 0 0 -10,-10z" fill="#23130D" p-id="12478" id="svg_1"/>
   <path stroke="null" d="m884.18154,283.42154c0,-90.38 -73.52,-163.9 -163.9,-163.9c-12.98,0 -25.8,1.52 -38.22,4.5c-38.48,-61.84 -106.68,-99.96 -179.8,-99.96c-96.86,0 -181.46,66.42 -205.1,159.36a133.08,133.08 0 0 0 -27.08,-2.78c-73.52,0 -133.34,59.82 -133.34,133.34c0,73.4 59.64,133.14 133,133.32c0.12,0.02 0.22,0.04 0.32,0.04l103.92,0c-3.1,33.46 -2.8,69.86 2.38,108.94c-20,15.52 -51.46,46.22 -68.96,95.62c-23.24,65.6 -14.86,142.54 24.9,228.68a9.976,9.976 0 0 0 10.74,5.66a9.98,9.98 0 0 0 8.28,-8.86c0.12,-1.24 12.5,-118.42 73.68,-154.42c2.46,5.54 5.06,11.1 7.7,16.68l-0.88,0c-5.52,0 -10,4.46 -10,10l0,29.14c0,5.52 4.48,10 10,10l20.74,0l0,35.18c0,5.54 4.48,10 10,10l95.8,0c5.52,0 10,-4.46 10,-10l0,-35.18l20.74,0c5.52,0 10,-4.48 10,-10l0,-29.14c0,-5.54 -4.48,-10 -10,-10l-0.88,0c2.64,-5.58 5.24,-11.14 7.7,-16.66c61.06,35.96 73.56,153.16 73.68,154.4a9.98,9.98 0 0 0 9.94,9c3.86,0 7.44,-2.22 9.08,-5.8c39.76,-86.14 48.14,-163.08 24.9,-228.68c-17.5,-49.42 -48.96,-80.12 -68.96,-95.62c5.18,-39.08 5.48,-75.48 2.38,-108.94l73.46,0c90.32,-0.08 163.78,-73.58 163.78,-163.92zm-546.96,557.28c-25.88,-68.42 -29.58,-129.56 -10.96,-182.12c13.48,-38.06 36.08,-63.84 53.66,-79.32c7.36,41.22 19.82,83.22 37.14,125.24c-49.08,27.24 -70.84,94.58 -79.84,136.2zm211.14,-26.74l-75.8,0l0,-25.18l75.8,0l0,25.18zm30.74,-45.18l-137.28,0l0,-9.14l137.28,0l0,9.14zm2.7,-63.44c-4.82,11.26 -10.14,22.78 -15.8,34.3l-111.08,0c-5.64,-11.5 -10.96,-23.02 -15.8,-34.28c-21.06,-49.14 -35.26,-98.26 -42.18,-146.04c-17.24,-119.04 13.36,-212.5 44.4,-272.54c20.72,12.92 44.38,19.7 69.12,19.7c12.36,0 24.48,-1.7 36.06,-5a130,130 0 0 0 33.06,-14.7c31.04,60.04 61.64,153.5 44.4,272.54c-6.92,47.78 -21.1,96.9 -42.18,146.02zm-130.86,-436.12c0.18,-0.3 0.34,-0.6 0.52,-0.9c1.16,-2 2.3,-3.96 3.46,-5.88c0.2,-0.34 0.42,-0.7 0.62,-1.04c1.36,-2.22 2.7,-4.42 4.06,-6.56c0.22,-0.38 0.46,-0.74 0.7,-1.1c1.12,-1.8 2.26,-3.58 3.4,-5.3l0.88,-1.36c2.68,-4.06 5.32,-7.92 7.92,-11.62l0.88,-1.24c1.14,-1.6 2.28,-3.18 3.4,-4.7c0.14,-0.22 0.3,-0.44 0.46,-0.66c1.28,-1.74 2.56,-3.44 3.8,-5.1l0.66,-0.84c1.06,-1.38 2.1,-2.74 3.12,-4.06c0.24,-0.3 0.48,-0.62 0.72,-0.92c1.22,-1.54 2.4,-3.04 3.58,-4.48c1.16,-1.44 2.28,-2.78 3.38,-4.12c0.22,-0.28 0.46,-0.56 0.7,-0.84c1,-1.2 2,-2.38 2.98,-3.52c0.06,-0.08 0.14,-0.16 0.2,-0.24c1.08,-1.24 2.1,-2.44 3.1,-3.56l0.5,-0.56c0.84,-0.96 1.66,-1.88 2.46,-2.76c0.16,-0.18 0.32,-0.34 0.48,-0.52c1.84,-2.02 3.52,-3.82 5.06,-5.44c0.12,-0.14 0.26,-0.26 0.38,-0.4c0.74,-0.78 1.44,-1.5 2.1,-2.16c9.28,9.48 27.14,29.2 46.16,58.14c0.08,0.14 0.16,0.26 0.24,0.4c1.34,2.02 2.68,4.1 4.02,6.24c0.12,0.18 0.24,0.38 0.36,0.56c1.36,2.18 2.74,4.42 4.12,6.68c0.24,0.4 0.48,0.82 0.72,1.22a445.99,445.99 0 0 1 3.9,6.64c-17.78,11.32 -38.18,17.26 -59.52,17.26s-41.74,-5.94 -59.52,-17.26zm243.72,389.36c18.62,52.56 14.92,113.7 -10.96,182.12c-9,-41.62 -30.76,-108.96 -79.84,-136.2c17.34,-42.02 29.78,-84.02 37.14,-125.24c17.58,15.48 40.18,41.24 53.66,79.32zm-421.28,-880.04c-0.12,-0.1 -0.24,-0.16 -0.36,-0.26c-0.22,-0.2 -0.46,-0.36 -0.7,-0.52c-0.18,-0.12 -0.34,-0.26 -0.52,-0.36c-0.14,-0.08 -0.28,-0.14 -0.42,-0.2c-0.24,-0.14 -0.48,-0.24 -0.72,-0.34c-0.2,-0.1 -0.38,-0.18 -0.58,-0.26c-0.16,-0.06 -0.34,-0.1 -0.52,-0.14c-0.22,-0.08 -0.44,-0.14 -0.66,-0.18c-0.22,-0.04 -0.42,-0.1 -0.62,-0.12c-0.2,-0.04 -0.4,-0.04 -0.58,-0.06l-0.64,-0.06l-0.62,0l-0.64,0.06c-0.2,0 -0.4,0.02 -0.6,0.06c-0.2,0.02 -0.4,0.08 -0.6,0.12c-0.24,0.04 -0.46,0.1 -0.68,0.18c-0.18,0.04 -0.36,0.08 -0.54,0.14l-0.54,0.24c-0.26,0.12 -0.5,0.22 -0.74,0.34c-0.14,0.08 -0.28,0.14 -0.42,0.22c-0.18,0.1 -0.34,0.24 -0.5,0.34c-0.24,0.18 -0.48,0.34 -0.72,0.54c-0.08,0.06 -0.16,0.1 -0.24,0.16c-0.04,0.04 -0.08,0.06 -0.12,0.1c-166.26,-63.42 -89.46,-123.84 -1.56,-123.84c68.54,0 132.3,36.98 166.38,96.5l-151.54,27.34z" fill="#23130D" p-id="12479" id="svg_2"/>
   <path d="m580.64,761.18l0,9.14l-137.28,0l0,-9.14l137.28,0z" fill="#E1E1E5" p-id="12480" id="svg_3"/>
   <path d="m474.1,790.32l75.8,0l0,25.18l-75.8,0l0,-25.18z" fill="#636368" p-id="12481" id="svg_4"/>
   <path d="m474.1,805l75.8,0l0,10.5l-75.8,0l0,-10.5z" fill="#FFFFFF" opacity="0.4" p-id="12482" id="svg_5"/>
   <path stroke="null" d="m863.719949,284.96c0,79.36 -64.377478,143.92 -143.493171,143.92l-75.40621,0c-9.11416,-67.08 -31.33117,-121.18 -52.570952,-159.92c-35.02071,-63.88 -73.032938,-98.1 -74.628415,-99.52c-0.119661,-0.1 -0.239321,-0.16 -0.358982,-0.26c-0.219378,-0.2 -0.4587,-0.36 -0.698021,-0.52c-0.179491,-0.12 -0.339039,-0.26 -0.51853,-0.36c-0.139604,-0.08 -0.279208,-0.14 -0.418813,-0.2c-0.239321,-0.14 -0.478643,-0.24 -0.717964,-0.34c-0.199435,-0.1 -0.378926,-0.18 -0.57836,-0.26c-0.159548,-0.06 -0.339039,-0.1 -0.51853,-0.14c-0.219378,-0.08 -0.438756,-0.14 -0.658134,-0.18c-0.219378,-0.04 -0.418813,-0.1 -0.618247,-0.12c-0.199435,-0.04 -0.398869,-0.04 -0.57836,-0.06l-0.638191,-0.06l-0.618247,0l-0.638191,0.06c-0.199435,0 -0.398869,0.02 -0.598304,0.06c-0.199435,0.02 -0.398869,0.08 -0.598304,0.12c-0.239321,0.04 -0.4587,0.1 -0.678078,0.18c-0.179491,0.04 -0.358982,0.08 -0.538473,0.14l-0.538473,0.24c-0.259265,0.12 -0.498586,0.22 -0.737908,0.34c-0.139604,0.08 -0.279208,0.14 -0.418813,0.22c-0.179491,0.1 -0.339039,0.24 -0.498586,0.34c-0.239321,0.18 -0.478643,0.34 -0.717964,0.54c-0.079774,0.06 -0.159548,0.1 -0.239321,0.16c-0.039887,0.04 -0.079774,0.06 -0.119661,0.1c-1.595477,1.42 -39.607705,35.64 -74.628415,99.52c-21.239781,38.74 -43.456792,92.84 -52.570952,159.92l-105.64049,0c-0.079774,0 -0.159548,-0.02 -0.239321,-0.02c-62.323302,0 -113.019569,-50.84 -113.019569,-113.34s50.696267,-113.34 113.019569,-113.34c10.78941,0 21.419272,1.52 31.670209,4.54c22.017576,6.42 41.362729,19.3 55.961339,37.26a9.971728,10 0 0 0 14.02025,1.44c4.2679,-3.5 4.90609,-9.8 1.435929,-14.08c-15.157027,-18.66 -34.701615,-32.64 -56.918625,-40.86c21.120121,-84.46 97.702994,-144.88 185.354486,-144.88c68.346226,0 131.925966,36.98 165.909616,96.5c16.493239,28.8 25.188586,61.7 25.188586,95.12c0,2.1 -0.039887,4.2 -0.099717,6.26a9.991672,10.02 0 0 0 9.712463,10.26l0.259265,0c5.404677,0 9.832124,-4.32 9.971728,-9.74c0.05983,-2.24 0.099717,-4.52 0.099717,-6.78c0,-32.48 -7.458853,-64.5 -21.63865,-93.42c9.154047,-1.8 18.527471,-2.74 28.000613,-2.74c79.115693,0 143.493171,64.56 143.493171,143.9z" fill="#3594BF" p-id="12483" id="svg_6"/>
   <path d="m601.3,255.6c23.12,42.08 47.32,100.68 57.5,173.28l-12.6,0c-9.14,-67.08 -31.42,-121.18 -52.72,-159.92c-35.12,-63.88 -73.24,-98.1 -74.84,-99.52c-0.12,-0.1 -0.24,-0.16 -0.36,-0.26c-0.22,-0.2 -0.46,-0.36 -0.7,-0.52c-0.18,-0.12 -0.34,-0.26 -0.52,-0.36c-0.14,-0.08 -0.28,-0.14 -0.42,-0.2c-0.24,-0.14 -0.48,-0.24 -0.72,-0.34c-0.2,-0.1 -0.38,-0.18 -0.58,-0.26c-0.16,-0.06 -0.34,-0.1 -0.52,-0.14c-0.22,-0.08 -0.44,-0.14 -0.66,-0.18c-0.22,-0.04 -0.42,-0.1 -0.62,-0.12c-0.2,-0.04 -0.4,-0.04 -0.58,-0.06l-0.64,-0.06l-0.62,0l-0.64,0.06c-0.2,0 -0.4,0.02 -0.6,0.06c-0.2,0.02 -0.4,0.08 -0.6,0.12c-0.24,0.04 -0.46,0.1 -0.68,0.18c-0.18,0.04 -0.36,0.08 -0.54,0.14l-0.54,0.24c-0.26,0.12 -0.5,0.22 -0.74,0.34c-0.14,0.08 -0.28,0.14 -0.42,0.22c-0.18,0.1 -0.34,0.24 -0.5,0.34c-0.24,0.18 -0.48,0.34 -0.72,0.54c-0.08,0.06 -0.16,0.1 -0.24,0.16c-0.04,0.04 -0.08,0.06 -0.12,0.1c-1.6,1.42 -39.72,35.64 -74.84,99.52c-21.3,38.74 -43.58,92.84 -52.72,159.92l-12.6,0c10.18,-72.6 34.38,-131.2 57.5,-173.28c38.48,-70 80.26,-107.52 82.02,-109.06c0.04,-0.06 0.1,-0.08 0.14,-0.12c0.08,-0.06 0.16,-0.1 0.26,-0.18c0.26,-0.22 0.52,-0.38 0.78,-0.58c0.18,-0.12 0.36,-0.26 0.56,-0.38c0.14,-0.08 0.3,-0.16 0.46,-0.24c0.26,-0.14 0.52,-0.24 0.8,-0.38c0.2,-0.08 0.4,-0.16 0.6,-0.26c0.2,-0.06 0.4,-0.1 0.58,-0.14c0.26,-0.1 0.5,-0.16 0.76,-0.2c0.22,-0.06 0.44,-0.12 0.66,-0.14c0.22,-0.04 0.44,-0.06 0.64,-0.06l0.72,-0.06l0.68,0c0.2,0.02 0.46,0.04 0.7,0.06c0.18,0.02 0.4,0.02 0.62,0.06c0.22,0.02 0.44,0.08 0.68,0.14c0.24,0.04 0.48,0.1 0.74,0.2c0.18,0.04 0.38,0.08 0.56,0.14c0.22,0.1 0.42,0.18 0.64,0.28c0.26,0.12 0.52,0.22 0.78,0.38c0.16,0.06 0.32,0.14 0.46,0.22c0.2,0.12 0.38,0.26 0.58,0.4c0.26,0.18 0.52,0.34 0.76,0.56c0.14,0.12 0.26,0.18 0.4,0.3c1.76,1.54 43.54,39.06 82.02,109.06z" fill="#23130D" opacity="0.2" p-id="12484" id="svg_7"/>
   <path d="m418.6,706.04c-49.08,27.24 -70.84,94.58 -79.84,136.2c-25.88,-68.42 -29.58,-129.56 -10.96,-182.12c13.48,-38.06 36.08,-63.84 53.66,-79.32c7.36,41.22 19.82,83.22 37.14,125.24z" fill="#E1E1E5" p-id="12485" id="svg_8"/>
   <path d="m418.6,706.04a101.212,101.212 0 0 0 -13.96,9.36c-13.24,-35.22 -23,-70.36 -29.18,-104.94c-17.58,15.48 -40.18,41.26 -53.66,79.32c-1.44,4.04 -2.74,8.14 -3.9,12.28c1.84,-14.54 5.14,-28.52 9.9,-41.94c13.48,-38.06 36.08,-63.84 53.66,-79.32c7.36,41.22 19.82,83.22 37.14,125.24z" fill="#23130D" opacity="0.2" p-id="12486" id="svg_9"/>
   <path d="m685.24,842.24c-9,-41.62 -30.76,-108.96 -79.84,-136.2c17.34,-42.02 29.78,-84.02 37.14,-125.24c17.58,15.48 40.18,41.24 53.66,79.32c18.62,52.56 14.92,113.7 -10.96,182.12zm-113.72,-571.48c-17.78,11.32 -38.18,17.26 -59.52,17.26s-41.74,-5.94 -59.52,-17.26c0.18,-0.3 0.34,-0.6 0.52,-0.9c1.16,-2 2.3,-3.96 3.46,-5.88c0.2,-0.34 0.42,-0.7 0.62,-1.04c1.36,-2.22 2.7,-4.42 4.06,-6.56c0.22,-0.38 0.46,-0.74 0.7,-1.1c1.12,-1.8 2.26,-3.58 3.4,-5.3l0.88,-1.36c2.68,-4.06 5.32,-7.92 7.92,-11.62l0.88,-1.24c1.14,-1.6 2.28,-3.18 3.4,-4.7c0.14,-0.22 0.3,-0.44 0.46,-0.66c1.28,-1.74 2.56,-3.44 3.8,-5.1l0.66,-0.84c1.06,-1.38 2.1,-2.74 3.12,-4.06c0.24,-0.3 0.48,-0.62 0.72,-0.92c1.22,-1.54 2.4,-3.04 3.58,-4.48c1.16,-1.44 2.28,-2.78 3.38,-4.12c0.22,-0.28 0.46,-0.56 0.7,-0.84c1,-1.2 2,-2.38 2.98,-3.52c0.06,-0.08 0.14,-0.16 0.2,-0.24c1.08,-1.24 2.1,-2.44 3.1,-3.56l0.5,-0.56c0.84,-0.96 1.66,-1.88 2.46,-2.76c0.16,-0.18 0.32,-0.34 0.48,-0.52c1.84,-2.02 3.52,-3.82 5.06,-5.44c0.12,-0.14 0.26,-0.26 0.38,-0.4c0.74,-0.78 1.44,-1.5 2.1,-2.16c9.28,9.48 27.14,29.2 46.16,58.14c0.08,0.14 0.16,0.26 0.24,0.4c1.34,2.02 2.68,4.1 4.02,6.24c0.12,0.18 0.24,0.38 0.36,0.56c1.36,2.18 2.74,4.42 4.12,6.68c0.24,0.4 0.48,0.82 0.72,1.22c1.08,1.8 2.16,3.64 3.24,5.5l0.66,1.14z" fill="#E1E1E5" p-id="12487" id="svg_10"/>
   <path d="m583.392712,290.592712a130,130 0 0 1 -33.06,14.7a131.49,131.49 0 0 1 -36.06,5c-24.74,0 -48.4,-6.78 -69.12,-19.7c-31.04,60.04 -61.64,153.5 -44.4,272.54c6.92,47.78 21.12,96.9 42.18,146.04c4.84,11.26 10.16,22.78 15.8,34.28l111.08,0c5.66,-11.52 10.98,-23.04 15.8,-34.3c21.08,-49.12 35.26,-98.24 42.18,-146.02c17.24,-119.04 -13.36,-212.5 -44.4,-272.54z" fill="#F9C139" p-id="12488" id="svg_11"/>
   <path d="m524.56,287.32c-4.14,0.46 -8.32,0.7 -12.56,0.7c-21.34,0 -41.74,-5.94 -59.52,-17.26c0.18,-0.3 0.34,-0.6 0.52,-0.9c1.16,-2 2.3,-3.96 3.46,-5.88c0.2,-0.34 0.42,-0.7 0.62,-1.04c1.36,-2.22 2.7,-4.42 4.06,-6.56c0.22,-0.38 0.46,-0.74 0.7,-1.1c1.12,-1.8 2.26,-3.58 3.4,-5.3l0.88,-1.36c2.68,-4.06 5.32,-7.92 7.92,-11.62l0.88,-1.24c1.14,-1.6 2.28,-3.18 3.4,-4.7c0.14,-0.22 0.3,-0.44 0.46,-0.66c1.28,-1.74 2.56,-3.44 3.8,-5.1l0.66,-0.84c1.06,-1.38 2.1,-2.74 3.12,-4.06c0.24,-0.3 0.48,-0.62 0.72,-0.92c1.22,-1.54 2.4,-3.04 3.58,-4.48c1.16,-1.44 2.28,-2.78 3.38,-4.12c0.22,-0.28 0.46,-0.56 0.7,-0.84c1,-1.2 2,-2.38 2.98,-3.52c0.06,-0.08 0.14,-0.16 0.2,-0.24c1.08,-1.24 2.1,-2.44 3.1,-3.56l0.5,-0.56c0.84,-0.96 1.66,-1.88 2.46,-2.76c0.16,-0.18 0.32,-0.34 0.48,-0.52c1.84,-2.02 3.52,-3.82 5.06,-5.44c0.12,-0.14 0.26,-0.26 0.38,-0.4c0.74,-0.78 1.44,-1.5 2.1,-2.16c3.24,3.32 7.52,7.88 12.54,13.64c-0.48,0.58 -1,1.16 -1.52,1.76c-0.06,0.08 -0.14,0.16 -0.2,0.24c-0.98,1.14 -1.98,2.32 -2.98,3.52c-0.24,0.28 -0.48,0.56 -0.7,0.84c-1.1,1.34 -2.22,2.68 -3.38,4.12c-1.18,1.44 -2.36,2.94 -3.58,4.48c-0.24,0.3 -0.48,0.62 -0.72,0.92c-1.02,1.32 -2.06,2.68 -3.12,4.06l-0.66,0.84c-1.24,1.66 -2.52,3.36 -3.8,5.1c-0.16,0.22 -0.32,0.44 -0.46,0.66c-1.12,1.52 -2.26,3.1 -3.4,4.7l-0.88,1.24c-2.6,3.7 -5.24,7.56 -7.92,11.62l-0.88,1.36c-1.14,1.72 -2.28,3.5 -3.4,5.3c-0.24,0.36 -0.48,0.72 -0.7,1.1c-1.36,2.14 -2.7,4.34 -4.06,6.56c-0.2,0.34 -0.42,0.7 -0.62,1.04c-1.16,1.92 -2.3,3.88 -3.46,5.88c-0.18,0.3 -0.34,0.6 -0.52,0.9c14.26,9.08 30.2,14.7 46.98,16.56zm-58.8,419.58c-21.06,-49.14 -35.26,-98.26 -42.18,-146.04c-16.3,-112.5 10.14,-202.16 39.3,-262.34c-6.92,-2.8 -13.6,-6.2 -20,-10.2c-31.04,60.04 -61.64,153.5 -44.4,272.54c6.92,47.78 21.12,96.9 42.18,146.04c4.84,11.26 10.16,22.78 15.8,34.28l25.1,0c-5.64,-11.5 -10.96,-23.02 -15.8,-34.28z" fill="#23130D" opacity="0.2" p-id="12489" id="svg_12"/>
   <path d="m605.4,706.04c4.92,2.74 9.58,5.86 13.96,9.36c13.24,-35.22 23,-70.36 29.18,-104.94c17.58,15.48 40.18,41.26 53.66,79.32c1.44,4.04 2.74,8.14 3.9,12.28c-1.84,-14.54 -5.14,-28.52 -9.9,-41.94c-13.48,-38.06 -36.08,-63.84 -53.66,-79.32c-7.36,41.22 -19.82,83.22 -37.14,125.24z" fill="#23130D" opacity="0.2" p-id="12491" id="svg_14"/>
   <text stroke="#000" transform="matrix(1,0,0,0.6100683291408326,0,193.862195677793) " font-style="normal" font-weight="normal" xml:space="preserve" text-anchor="start" font-family="'Simonetta', serif" font-size="250" id="svg_13" y="382.417553" x="449.00667" stroke-width="0" fill="#000000">a</text>
   <text stroke="null" transform="matrix(1,0,0,0.7518355250358582,0,129.2898138863966) " xml:space="preserve" text-anchor="start" font-family="'Simonetta', serif" font-size="250" id="svg_15" y="565.827922" x="445.502247" fill-opacity="null" stroke-opacity="null" stroke-width="0" fill="#000000">n</text>
   <text stroke="null" transform="matrix(1,0,0,0.6204923987388611,0,246.021732323803) " xml:space="preserve" text-anchor="start" font-family="'Simonetta', serif" font-size="250" id="svg_16" y="687.674322" x="471.628544" fill-opacity="null" stroke-opacity="null" stroke-width="0" fill="#000000">t</text>
  </g>
 </svg>